<?xml version="1.0" encoding="UTF-8"?>
<svg width="235px" height="32px" viewBox="0 0 235 32" version="1.1" xmlns="http://www.w3.org/2000/svg" xmlns:xlink="http://www.w3.org/1999/xlink">
    <title>Logo-Front</title>
    <defs>
        <path d="M0.570191597,1.55807958 C0.215628011,1.9982699 -0.170057143,2.56406574 0.155885714,3.57833045 L0.155885714,3.57833045 C0.497389356,4.54749135 1.54690868,5.0524827 2.48527955,4.69964533 L2.48527955,4.69964533 C3.42365042,4.34709343 3.9265972,3.30199827 3.60926835,2.28031142 L3.60926835,2.28031142 C3.41976022,1.80301038 3.10743305,1.45987889 2.68590252,1.28916955 L2.68590252,1.28916955 C2.43192829,1.23093426 2.78121232,0.595198962 3.71819384,0.176704152 L3.71819384,0.176704152 C1.99817143,0.603762976 1.03590364,1.00969723 0.570191597,1.55807958 L0.570191597,1.55807958 Z" id="path-1"></path>
        <path d="M6.18389216,0.481383218 C8.9194902,-0.317425173 11.1077255,2.4995359 11.1077255,6.45191393 L11.1077255,6.45191393 L11.1077255,8.97452984 C3.82758824,10.8248279 0.292068627,11.4974455 0.292068627,15.9123231 L0.292068627,15.9123231 C0.292068627,20.2429736 5.08977451,20.2014579 5.08977451,20.2014579 L5.08977451,20.2014579 C7.06769608,20.2014579 8.79336275,19.3179745 9.92972549,18.309048 L9.92972549,18.309048 C9.50879412,18.5614295 8.96173529,18.6876202 8.3304902,18.6876202 L8.3304902,18.6876202 C5.67907843,18.6876202 4.80287255,16.4581505 4.76427451,15.5939987 L4.76427451,15.5939987 C4.63328431,12.6469503 6.60482353,10.6986371 11.1077255,9.64744723 L11.1077255,9.64744723 L11.1077255,16.4590497 C11.1077255,20.285237 15.0216275,20.2014579 15.0216275,20.2014579 L15.0216275,20.2014579 C17.4627255,20.2014579 19.103902,18.6030934 19.4406471,17.2998218 L19.4406471,17.2998218 C19.1877843,18.1828573 18.220402,18.1828573 18.220402,18.1828573 L18.220402,18.1828573 C15.1963824,18.1828573 15.6528725,15.1554784 15.6528725,15.1554784 L15.6528725,15.1554784 L15.6528725,8.42810294 C15.6528725,3.4664987 14.2642549,0.01858391 9.21429412,0.01858391 L9.21429412,0.01858391 C9.21429412,0.01858391 9.13314706,0.0140878028 8.98848039,0.0140878028 L8.98848039,0.0140878028 C8.51770588,0.0140878028 7.37556863,0.0632452422 6.18389216,0.481383218 L6.18389216,0.481383218 Z" id="path-3"></path>
        <path d="M13.3218965,0.19177451 C15.0605211,0.699627451 15.4846057,1.25185294 15.4846057,2.73316667 L15.4846057,2.73316667 L15.4846057,11.1964706 C14.3818018,10.4770882 12.9826901,10.0117843 11.3709232,9.84219608 L11.3709232,9.84219608 C13.5339389,10.2655588 15.4846057,12.8893137 15.4846057,16.9937745 L15.4846057,16.9937745 L15.4846057,23.680049 C15.4846057,26.6423725 13.5339389,28.7157255 10.6922039,28.7157255 L10.6922039,28.7157255 C7.12977019,28.7157255 5.39083922,25.9229902 5.39083922,19.1519216 L5.39083922,19.1519216 C5.39083922,13.3546176 6.96001375,10.2795392 9.41994993,9.81362745 L9.41994993,9.81362745 L9.41994993,9.79995098 C4.07629933,10.1382157 0.174659146,13.3123725 0.174659146,19.6594706 L0.174659146,19.6594706 C0.174659146,25.9649314 3.90684932,30.0696961 9.12302938,30.0696961 L9.12302938,30.0696961 C11.2011668,30.0696961 14.1700659,29.1387843 15.4846057,26.8113529 L15.4846057,26.8113529 L15.4846057,29.2658235 C15.4846057,29.2658235 15.4846057,30.2392843 16.6719815,30.027451 L16.6719815,30.027451 L22.1427962,30.0696961 C20.4041717,29.9852059 19.980087,28.0808333 19.980087,26.0074804 L19.980087,26.0074804 L19.980087,0.19177451 L13.3218965,0.19177451 Z" id="path-5"></path>
        <path d="M0.0974588235,0.19177451 C1.24312157,1.29014706 1.84098824,2.51647059 1.89076078,3.86952941 L1.89076078,3.86952941 C1.94112941,5.22258824 1.94112941,13.9013725 1.89076078,29.9046667 L1.89076078,29.9046667 L7.94632157,29.9046667 L7.94632157,17.3481471 L7.94632157,16.1452255 L7.94632157,4.49864706 L10.4236235,4.49864706 C12.6258353,4.49864706 13.6051922,4.32905882 15.3785255,5.75019608 L15.3785255,5.75019608 C16.560251,6.69691176 17.5640471,7.98766667 18.3896157,9.62094118 L18.3896157,9.62094118 L18.3896157,0.19177451 L0.0974588235,0.19177451 Z M8.29860392,16.8229706 L13.7366275,21.1529412 L13.7366275,12.493 L8.29860392,16.8229706 Z" id="path-7"></path>
        <path d="M0.0380300203,0.0404604917 C2.15744909,0.250976734 2.03038053,2.05831343 2.03038053,4.62314355 L2.03038053,4.62314355 L2.03038053,19.4627133 C2.03038053,19.4627133 2.07263611,20.345543 3.17460122,20.1776168 L3.17460122,20.1776168 L8.72698418,20.1776168 C6.94651521,19.9671005 6.56530953,18.1594596 6.56530953,16.1416067 L6.56530953,16.1416067 L6.56530953,0.0404604917 L0.0380300203,0.0404604917 Z" id="path-9"></path>
        <path d="M0.0922840959,0.0404604917 C2.47775233,0.292654083 2.43630013,1.97252502 2.43630013,4.57599034 L2.43630013,4.57599034 L2.43630013,13.8152805 C2.43630013,18.9388565 4.86352314,20.1986076 8.04384488,20.1986076 L8.04384488,20.1986076 C9.96910292,20.1986076 12.1869469,19.0648011 13.5681827,17.5528565 L13.5681827,17.5528565 C12.8568387,18.1409025 10.4734885,17.8613297 10.016304,17.7299091 L10.016304,17.7299091 C9.55942205,17.5987928 6.83023338,16.41905 6.83023338,13.6890316 L6.83023338,13.6890316 L6.83023338,0.0404604917 L0.0922840959,0.0404604917 Z" id="path-11"></path>
        <path d="M6.64964183,6.72067647 L6.64964183,1.40605882 C6.64964183,1.40605882 4.74798431,0.224852941 0.31056732,0.0430294118 L0.31056732,0.0430294118 C4.38554771,0.588176471 6.24181961,4.76752941 6.64964183,6.72067647 L6.64964183,6.72067647 Z" id="path-13"></path>
        <path d="M1.25726771,2.38534372 C-0.693983193,5.31918569 0.302184874,8.29531343 4.28834574,10.8519298 L4.28834574,10.8519298 L8.48171909,13.4088503 C11.3466699,15.2949785 11.6372437,19.5281194 8.93842017,20.1986076 L8.93842017,20.1986076 C12.2597743,19.8633635 13.5471116,18.1028758 13.5471116,18.1028758 L13.5471116,18.1028758 C15.5814262,15.1690338 14.3357695,11.6060768 10.6404802,9.30104565 L10.6404802,9.30104565 L6.44710684,6.6604662 C3.20881633,4.60671598 3.4580072,0.834459614 5.94902281,0.205953029 L5.94902281,0.205953029 C2.50292437,0.49921554 1.25726771,2.38534372 1.25726771,2.38534372 L1.25726771,2.38534372 Z" id="path-15"></path>
        <path d="M0.186596791,5.17655147 C0.186596791,5.17655147 2.30105098,6.56028676 6.74162139,6.75250368 L6.74162139,6.75250368 C2.34344528,6.29135294 0.652005704,1.98614706 0.186596791,0.140977941 L0.186596791,0.140977941 L0.186596791,5.17655147 Z" id="path-17"></path>
        <path d="M0.233087582,2.46871972 C0.233087582,3.75874567 1.41570719,4.77529412 2.91667451,4.77529412 L2.91667451,4.77529412 C4.41796601,4.77529412 5.69135686,3.75874567 5.69135686,2.46871972 L5.69135686,2.46871972 C5.69135686,1.17897924 4.41796601,0.123892734 2.91667451,0.123892734 L2.91667451,0.123892734 C1.41570719,0.123892734 0.233087582,1.17897924 0.233087582,2.46871972 L0.233087582,2.46871972 Z" id="path-19"></path>
        <path d="M0.250515213,0.0404604917 C1.9911432,0.754755487 2.41490629,3.40233187 2.41490629,4.83092186 L2.41490629,4.83092186 L2.41490629,15.3363516 C2.41490629,17.4792366 2.33039513,19.6942204 0.717439351,20.1986076 L0.717439351,20.1986076 L8.61108316,20.1986076 C7.08384584,19.7784877 6.87136065,17.6474671 6.87136065,15.3363516 L6.87136065,15.3363516 L6.87136065,0.0404604917 L0.250515213,0.0404604917 Z" id="path-21"></path>
        <path d="M4.10980392,10.0986953 C4.10980392,16.944428 2.91639216,19.776054 0.308078431,20.1986076 L0.308078431,20.1986076 C6.40847059,19.776054 9.67968627,15.3807669 9.67968627,10.0986953 L9.67968627,10.0986953 C9.67968627,4.81601536 6.40847059,0.463318262 0.308078431,0.0404604917 L0.308078431,0.0404604917 C2.91639216,0.463318262 4.10980392,3.29464004 4.10980392,10.0986953 L4.10980392,10.0986953 Z" id="path-23"></path>
        <path d="M0.212705882,10.0986953 C0.212705882,15.3807669 3.49960784,19.776054 9.58431373,20.1986076 L9.58431373,20.1986076 C6.96407843,19.776054 5.76470588,16.944428 5.76470588,10.0986953 L5.76470588,10.0986953 C5.76470588,3.29464004 6.96407843,0.463318262 9.58431373,0.0404604917 L9.58431373,0.0404604917 C3.49960784,0.463318262 0.212705882,4.81601536 0.212705882,10.0986953 L0.212705882,10.0986953 Z" id="path-25"></path>
        <path d="M0.276170385,0.0404604917 C1.98208844,0.754755487 2.35635213,3.31715189 2.35635213,4.78741923 L2.35635213,4.78741923 L2.35635213,15.3728573 C2.35635213,17.5151339 2.2733501,19.7368104 0.69238783,20.1986076 L0.69238783,20.1986076 L8.47284706,20.1986076 C7.01653874,19.8207735 6.76662718,17.6833644 6.76662718,15.3728573 L6.76662718,15.3728573 L6.76662718,0.0404604917 L0.276170385,0.0404604917 Z" id="path-27"></path>
        <path d="M0.289910078,2.56178797 C0.86002736,2.14166813 2.01202298,1.84718876 2.70416124,1.81037884 L2.70416124,1.81037884 C5.18192212,1.67956673 6.43976726,4.28485733 6.43976726,6.72191747 L6.43976726,6.72191747 L6.43976726,15.3366558 C6.43976726,17.4795408 6.35832193,19.7362019 4.81056671,20.1986076 L4.81056671,20.1986076 L12.4270278,20.1986076 C10.9604239,19.8204693 10.7569576,17.6477713 10.7569576,15.3366558 L10.7569576,15.3366558 L10.7569576,6.59597278 C10.7569576,1.51133626 8.63879106,0.0404604917 5.38068399,0.0404604917 L5.38068399,0.0404604917 C3.58888682,0.0404604917 1.63361094,1.13319798 0.289910078,2.56178797 L0.289910078,2.56178797 Z" id="path-29"></path>
        <path d="M0.128168067,0.0391176471 C1.88657143,0.695588235 2.27232605,3.32235294 2.27232605,4.71764706 L2.27232605,4.71764706 L2.27232605,14.9773529 C2.27232605,17.0702941 2.18667227,18.8761765 0.55737479,19.3685294 L0.55737479,19.3685294 L8.6178958,19.3685294 C7.07456471,18.9579412 6.86011765,17.2341176 6.86011765,14.9773529 L6.86011765,14.9773529 L6.86011765,0.0391176471 L0.128168067,0.0391176471 Z" id="path-31"></path>
        <path d="M3.85907451,0.126585139 C2.83206275,0.426650155 1.67683012,1.49726006 0.00778039216,3.59618266 L0.00778039216,3.59618266 C1.16301302,2.56817647 2.23297255,2.48235604 2.14738824,2.86793498 L2.14738824,2.86793498 C2.10475169,3.55327245 2.36150463,4.19539319 2.87469929,4.7523065 L2.87469929,4.7523065 C4.03024314,5.82322291 5.74192941,5.7806192 6.81157773,4.70970279 L6.81157773,4.70970279 C7.88153725,3.63878638 7.88153725,1.88283901 6.81157773,0.812229102 L6.81157773,0.812229102 C6.2436091,0.274931889 5.34948643,0.0407647059 4.59323231,0.0407647059 L4.59323231,0.0407647059 C4.32403075,0.0407647059 4.07225725,0.070495356 3.85907451,0.126585139 L3.85907451,0.126585139 Z" id="path-33"></path>
        <path d="M10.5481046,0.042285777 C12.4307488,0.759014486 13.971234,3.57847191 13.971234,7.40214047 L13.971234,7.40214047 L4.77143895,7.40214047 C4.77143895,3.57847191 6.55891922,0.759014486 8.57953569,0.042285777 L8.57953569,0.042285777 L8.57953569,0.0404604917 C3.53030431,0.546977173 0.0215581699,4.55287006 0.0215581699,10.2039535 L0.0215581699,10.2039535 C0.0215581699,15.4753775 3.8296549,20.1986076 9.30727791,20.1986076 L9.30727791,20.1986076 C14.6986682,20.1986076 17.1378212,16.8671576 17.694022,14.7586488 L17.694022,14.7586488 C16.7525459,16.782586 13.5394546,18.0341234 11.1039974,17.6258679 L11.1039974,17.6258679 C7.29528471,16.9879306 5.02798118,14.6320957 4.77143895,9.697741 L4.77143895,9.697741 L18.4214562,9.697741 C18.4214562,3.49846356 15.6401443,0.377834065 10.5481046,0.0404604917 L10.5481046,0.0404604917 L10.5481046,0.042285777 Z" id="path-35"></path>
    </defs>
    <g id="Desktop-Design" stroke="none" stroke-width="1" fill="none" fill-rule="evenodd">
        <g id="Home-DESKTOP-V2" transform="translate(-50.000000, -51.000000)">
            <g id="Logo-Front" transform="translate(50.000000, 50.000000)">
                <g id="Group-3" transform="translate(193.537255, 11.647059)">
                    <mask id="mask-2" fill="white">
                        <use xlink:href="#path-1"></use>
                    </mask>
                    <use id="Clip-2" fill="#8AE38C" xlink:href="#path-1"></use>
                    <polygon id="Fill-1" fill="#8AE38C" mask="url(#mask-2)" points="1.18656538 -1.89116263 -1.58130913 4.20698616 3.11749199 6.45817993 5.88564437 0.360031142"></polygon>
                </g>
                <g id="Group-6" transform="translate(191.592157, 11.647059)">
                    <mask id="mask-4" fill="white">
                        <use xlink:href="#path-3"></use>
                    </mask>
                    <g id="Clip-5"></g>
                    <polygon id="Fill-4" fill="#8AE38C" mask="url(#mask-4)" points="-0.533078431 21.0154048 20.266098 21.0154048 20.266098 -0.800007353 -0.533078431 -0.800007353"></polygon>
                </g>
                <g id="Group-9" transform="translate(212.988235, 1.941176)">
                    <mask id="mask-6" fill="white">
                        <use xlink:href="#path-5"></use>
                    </mask>
                    <g id="Clip-8"></g>
                    <polygon id="Fill-7" fill="#8AE38C" mask="url(#mask-6)" points="-0.657576363 30.8948431 22.9750317 30.8948431 22.9750317 -0.633372549 -0.657576363 -0.633372549"></polygon>
                </g>
                <path d="M37.9294118,1.94117647 L56.4078431,1.94117647 L56.4078431,11.1814465 C55.5738675,9.58059392 54.5598495,8.31599484 53.365789,7.38794709 C51.5746984,5.99557763 50.5853684,6.16176847 48.3607309,6.16176847 L45.8585029,6.16176847 L45.8585029,17.5750284 L45.8585029,18.7535537 L45.8585029,31.0588235 L39.7412765,31.0588235 C39.7921581,15.3758292 39.7921581,6.8715046 39.7412765,5.54525408 C39.6906961,4.21900355 39.0867411,3.01754507 37.9294118,1.94117647 L37.9294118,1.94117647 Z M51.7074721,22.4827212 L46.2143727,18.2394939 L51.7074721,13.9962666 L51.7074721,22.4827212 Z" id="Fill-10" fill="#070517"></path>
                <g id="Group-15" transform="translate(37.929412, 1.941176)">
                    <mask id="mask-8" fill="white">
                        <use xlink:href="#path-7"></use>
                    </mask>
                    <g id="Clip-13"></g>
                    <polygon id="Fill-12" fill="#070517" mask="url(#mask-8)" points="-40.5333333 32.2156863 199.367075 32.2156863 199.367075 -1.95421569 -40.5333333 -1.95421569"></polygon>
                    <polygon id="Fill-14" fill="#070517" mask="url(#mask-8)" points="-0.711717647 30.7298137 19.1990902 30.7298137 19.1990902 -0.633372549 -0.711717647 -0.633372549"></polygon>
                </g>
                <path d="M77.5713504,27.9270842 C77.5713504,29.9673549 77.9556807,31.7950782 79.7490196,32.0079332 L74.1558577,32.0079332 C73.0454349,32.1777251 73.0031707,31.2850874 73.0031707,31.2850874 L73.0031707,16.2806542 C73.0031707,13.6876371 73.1308754,11.8599138 70.9960784,11.6470588 L77.5713504,11.6470588 L77.5713504,27.9270842 Z" id="Fill-16" fill="#070517"></path>
                <g id="Group-21" transform="translate(70.996078, 11.647059)">
                    <mask id="mask-10" fill="white">
                        <use xlink:href="#path-9"></use>
                    </mask>
                    <g id="Clip-19"></g>
                    <polygon id="Fill-18" fill="#070517" mask="url(#mask-10)" points="-74.5509128 22.5118525 168.397232 22.5118525 168.397232 -11.6909526 -74.5509128 -11.6909526"></polygon>
                    <polygon id="Fill-20" fill="#070517" mask="url(#mask-10)" points="-0.781124544 21.0245492 9.54644057 21.0245492 9.54644057 -0.785481124 -0.781124544 -0.785481124"></polygon>
                </g>
                <path d="M71.9686275,29.3545009 C70.5733383,30.8832851 68.3321322,32.0294118 66.3871652,32.0294118 C63.1734756,32.0294118 60.7210195,30.7559377 60.7210195,25.5752973 L60.7210195,16.2331036 C60.7210195,13.6003343 60.7632084,11.9020612 58.3529412,11.6470588 L65.1606315,11.6470588 L65.1606315,25.4476423 C65.1606315,28.207759 67.9181924,29.4009489 68.3801297,29.5335256 C68.8417613,29.6661022 71.2498885,29.9490965 71.9686275,29.3545009" id="Fill-22" fill="#070517"></path>
                <g id="Group-27" transform="translate(58.352941, 11.647059)">
                    <mask id="mask-12" fill="white">
                        <use xlink:href="#path-11"></use>
                    </mask>
                    <g id="Clip-25"></g>
                    <polygon id="Fill-24" fill="#070517" mask="url(#mask-12)" points="-62.0270153 22.5118525 181.521001 22.5118525 181.521001 -11.6909526 -62.0270153 -11.6909526"></polygon>
                    <polygon id="Fill-26" fill="#070517" mask="url(#mask-12)" points="-0.729195643 21.0245492 14.389965 21.0245492 14.389965 -0.785481124 -0.729195643 -0.785481124"></polygon>
                </g>
                <path d="M95.3098039,12.8357473 L95.3098039,17.4705882 C94.9346715,15.7672623 93.2258343,12.1227599 89.4745098,11.6470588 C93.5591858,11.8056259 95.3098039,12.8357473 95.3098039,12.8357473" id="Fill-28" fill="#070517"></path>
                <g id="Group-33" transform="translate(89.474510, 11.647059)">
                    <mask id="mask-14" fill="white">
                        <use xlink:href="#path-13"></use>
                    </mask>
                    <g id="Clip-31"></g>
                    <polygon id="Fill-30" fill="#070517" mask="url(#mask-14)" points="-99.524183 23.9411765 161.42012 23.9411765 161.42012 -12.4332353 -99.524183 -12.4332353"></polygon>
                    <polygon id="Fill-32" fill="#070517" mask="url(#mask-14)" points="-0.569589542 7.59905882 7.52979869 7.59905882 7.52979869 -0.835352941 -0.569589542 -0.835352941"></polygon>
                </g>
                <path d="M92.3055539,20.4780264 C96.0935876,22.7161186 97.3709158,26.1753106 95.2850708,29.024248 C95.2850708,29.024248 93.9653176,30.7336105 90.5603299,31.0588235 C93.3271113,30.4078066 93.0292207,26.2975978 90.0921288,24.4662435 L85.7931639,21.9838723 C81.7066292,19.5012057 80.6853771,16.6118012 82.6857616,13.7631592 C82.6857616,13.7631592 83.9627846,11.9315095 87.4956578,11.6470588 C84.941917,12.2573133 84.6864513,15.9197265 88.0065891,17.913835 L92.3055539,20.4780264 Z" id="Fill-34" fill="#070517"></path>
                <g id="Group-39" transform="translate(81.694118, 11.647059)">
                    <mask id="mask-16" fill="white">
                        <use xlink:href="#path-15"></use>
                    </mask>
                    <g id="Clip-37"></g>
                    <polygon id="Fill-36" fill="#070517" mask="url(#mask-16)" points="-83.9567827 22.5118525 155.685945 22.5118525 155.685945 -11.6909526 -83.9567827 -11.6909526"></polygon>
                    <polygon id="Fill-38" fill="#070517" mask="url(#mask-16)" points="-0.518626651 21.0245492 15.3283649 21.0245492 15.3283649 -0.620292801 -0.518626651 -0.620292801"></polygon>
                </g>
                <path d="M82.6666667,29.4392786 L82.6666667,24.2647059 C83.1500258,26.1606237 84.9067019,30.5849168 89.4745098,31.0588235 C84.8626725,30.8615806 82.6666667,29.4392786 82.6666667,29.4392786" id="Fill-40" fill="#070517"></path>
                <g id="Group-45" transform="translate(82.666667, 24.264706)">
                    <mask id="mask-18" fill="white">
                        <use xlink:href="#path-17"></use>
                    </mask>
                    <g id="Clip-43"></g>
                    <polygon id="Fill-42" fill="#070517" mask="url(#mask-18)" points="-87.883066 9.05882353 161.200133 9.05882353 161.200133 -22.7687868 -87.883066 -22.7687868"></polygon>
                    <polygon id="Fill-44" fill="#070517" mask="url(#mask-18)" points="-0.653862389 7.52108824 7.58177112 7.52108824 7.58177112 -0.627889706 -0.653862389 -0.627889706"></polygon>
                </g>
                <path d="M102.563343,8.73529412 C101.22585,8.73529412 100.172549,7.67469982 100.172549,6.32907638 C100.172549,4.98315511 101.22585,3.88235294 102.563343,3.88235294 C103.900548,3.88235294 105.035294,4.98315511 105.035294,6.32907638 C105.035294,7.67469982 103.900548,8.73529412 102.563343,8.73529412" id="Fill-46" fill="#FFDE62"></path>
                <g id="Group-51" transform="translate(100.172549, 3.882353)">
                    <mask id="mask-20" fill="white">
                        <use xlink:href="#path-19"></use>
                    </mask>
                    <g id="Clip-49"></g>
                    <polygon id="Fill-48" fill="#FFDE62" mask="url(#mask-20)" points="-110.870588 29.1176471 150.073715 29.1176471 150.073715 -2.97742215 -110.870588 -2.97742215"></polygon>
                    <polygon id="Fill-50" fill="#FFDE62" mask="url(#mask-20)" points="-0.647069281 5.55062284 6.57216209 5.55062284 6.57216209 -0.651435986 -0.647069281 -0.651435986"></polygon>
                </g>
                <path d="M106.980392,32.0294118 L98.7162885,32.0294118 C100.404311,31.5197222 100.49342,29.2801026 100.49342,27.1130761 L100.49342,16.4908014 C100.49342,15.0463221 100.049137,12.3696061 98.227451,11.6470588 L105.158706,11.6470588 L105.158706,27.1130761 C105.158706,29.4498966 105.380847,31.6046192 106.980392,32.0294118" id="Fill-52" fill="#070517"></path>
                <g id="Group-57" transform="translate(98.227451, 11.647059)">
                    <mask id="mask-22" fill="white">
                        <use xlink:href="#path-21"></use>
                    </mask>
                    <g id="Clip-55"></g>
                    <polygon id="Fill-54" fill="#070517" mask="url(#mask-22)" points="-101.715213 22.5118525 141.232931 22.5118525 141.232931 -11.6909526 -101.715213 -11.6909526"></polygon>
                    <polygon id="Fill-56" fill="#070517" mask="url(#mask-22)" points="-0.568941176 21.0245492 9.4311432 21.0245492 9.4311432 -0.785481124 -0.568941176 -0.785481124"></polygon>
                </g>
                <path d="M129.34902,21.8171648 C129.34902,27.158293 126.293753,31.602466 120.596078,32.0294118 C123.031911,31.602466 124.146833,28.7393457 124.146833,21.8171648 C124.146833,14.9377401 123.031911,12.0746198 120.596078,11.6470588 C126.293753,12.0746198 129.34902,16.4760367 129.34902,21.8171648" id="Fill-58" fill="#070517"></path>
                <g id="Group-63" transform="translate(119.623529, 11.647059)">
                    <mask id="mask-24" fill="white">
                        <use xlink:href="#path-23"></use>
                    </mask>
                    <g id="Clip-61"></g>
                    <polygon id="Fill-60" fill="#070517" mask="url(#mask-24)" points="-128 22.5118525 124.526745 22.5118525 124.526745 -11.6909526 -128 -11.6909526"></polygon>
                    <polygon id="Fill-62" fill="#070517" mask="url(#mask-24)" points="-0.544 21.0245492 10.5317647 21.0245492 10.5317647 -0.785481124 -0.544 -0.785481124"></polygon>
                </g>
                <path d="M115.083231,21.8171648 C115.083231,28.7393457 116.203427,31.602466 118.65098,32.0294118 C112.967663,31.602466 109.898039,27.158293 109.898039,21.8171648 C109.898039,16.4760367 112.967663,12.0746198 118.65098,11.6470588 C116.203427,12.0746198 115.083231,14.9377401 115.083231,21.8171648" id="Fill-64" fill="#070517"></path>
                <g id="Group-69" transform="translate(108.925490, 11.647059)">
                    <mask id="mask-26" fill="white">
                        <use xlink:href="#path-25"></use>
                    </mask>
                    <g id="Clip-67"></g>
                    <polygon id="Fill-66" fill="#070517" mask="url(#mask-26)" points="-117.019608 22.5118525 135.507137 22.5118525 135.507137 -11.6909526 -117.019608 -11.6909526"></polygon>
                    <polygon id="Fill-68" fill="#070517" mask="url(#mask-26)" points="-0.639058824 21.0245492 10.4367059 21.0245492 10.4367059 -0.785481124 -0.639058824 -0.785481124"></polygon>
                </g>
                <path d="M137.45523,27.1499142 C137.45523,29.4861548 137.692163,31.6473695 139.07451,32.0294118 L131.689197,32.0294118 C133.189867,31.5624713 133.26894,29.3163582 133.26894,27.1499142 L133.26894,16.4465797 C133.26894,14.9599371 132.913397,12.3690018 131.294118,11.6470588 L137.45523,11.6470588 L137.45523,27.1499142 Z" id="Fill-70" fill="#070517"></path>
                <g id="Group-75" transform="translate(131.294118, 11.647059)">
                    <mask id="mask-28" fill="white">
                        <use xlink:href="#path-27"></use>
                    </mask>
                    <g id="Clip-73"></g>
                    <polygon id="Fill-72" fill="#070517" mask="url(#mask-28)" points="-134.312373 22.5118525 108.635771 22.5118525 108.635771 -11.6909526 -134.312373 -11.6909526"></polygon>
                    <polygon id="Fill-74" fill="#070517" mask="url(#mask-28)" points="-0.543286004 21.0245492 9.29260527 21.0245492 9.29260527 -0.785481124 -0.543286004 -0.785481124"></polygon>
                </g>
                <path d="M149.977948,27.1133096 C149.977948,29.4504729 150.189898,31.6470588 151.717647,32.0294118 L143.783641,32.0294118 C145.395925,31.5621637 145.480766,29.2803688 145.480766,27.1133096 L145.480766,18.4029312 C145.480766,15.9387281 144.170785,13.3041132 141.589416,13.4366898 C140.868727,13.4739097 139.668396,13.7716689 139.07451,14.1964679 C140.474538,12.7519668 142.511027,11.6470588 144.377834,11.6470588 C147.771778,11.6470588 149.977948,13.1343166 149.977948,18.2755838 L149.977948,27.1133096 Z" id="Fill-76" fill="#070517"></path>
                <g id="Group-81" transform="translate(139.074510, 11.647059)">
                    <mask id="mask-30" fill="white">
                        <use xlink:href="#path-29"></use>
                    </mask>
                    <g id="Clip-79"></g>
                    <polygon id="Fill-78" fill="#070517" mask="url(#mask-30)" points="-138.486457 22.5118525 98.1839577 22.5118525 98.1839577 -11.6909526 -138.486457 -11.6909526"></polygon>
                    <polygon id="Fill-80" fill="#070517" mask="url(#mask-30)" points="-0.508665755 21.0245492 13.2253096 21.0245492 13.2253096 -0.785481124 -0.508665755 -0.785481124"></polygon>
                </g>
                <g id="Group-84" transform="translate(153.662745, 11.647059)">
                    <mask id="mask-32" fill="white">
                        <use xlink:href="#path-31"></use>
                    </mask>
                    <g id="Clip-83"></g>
                    <polygon id="Fill-82" fill="#8AE38C" mask="url(#mask-32)" points="-0.720554622 20.1670588 9.46693109 20.1670588 9.46693109 -0.759411765 -0.720554622 -0.759411765"></polygon>
                </g>
                <g id="Group-87" transform="translate(162.415686, 11.647059)">
                    <mask id="mask-34" fill="white">
                        <use xlink:href="#path-33"></use>
                    </mask>
                    <g id="Clip-86"></g>
                    <polygon id="Fill-85" fill="#8AE38C" mask="url(#mask-34)" points="-0.837481412 6.36665015 8.45915357 6.36665015 8.45915357 -0.791386997 -0.837481412 -0.791386997"></polygon>
                </g>
                <g id="Group-90" transform="translate(171.168627, 11.647059)">
                    <mask id="mask-36" fill="white">
                        <use xlink:href="#path-35"></use>
                    </mask>
                    <g id="Clip-89"></g>
                    <polygon id="Fill-88" fill="#8AE38C" mask="url(#mask-36)" points="-0.814898824 21.0245492 19.2579132 21.0245492 19.2579132 -0.785481124 -0.814898824 -0.785481124"></polygon>
                </g>
                <g id="Group-97" transform="translate(0.000000, 1.941176)">
                    <polygon id="Fill-91" fill="#FF5844" points="19.4625321 15.0483422 19.4625321 18.5081853 15.011745 15.0483422 15.0102223 15.0483422 15.0102223 17.0092441 15.0102223 29.9046363 29.8956156 29.9046363 29.8956156 15.0483422"></polygon>
                    <path d="M15.0092783,0.191804902 L15.0092783,5.07035392 L15.0101919,5.07035392 L15.0101919,5.08342255 L23.4534401,5.08342255 L23.4534401,12.30855 C23.4534401,12.30855 21.4782225,8.38978529 18.5607719,8.38978529 L15.0101919,8.38978529 L15.0101919,15.0471873 L19.4625017,11.8754618 L19.4625017,15.0484029 L29.8955851,15.0484029 L29.8955851,0.191804902 L15.0092783,0.191804902 Z" id="Fill-93" fill="#0A0B15"></path>
                    <path d="M0.122727827,0.191804902 L0.122727827,15.0484029 L10.3063967,15.0484029 C10.3039604,12.3748049 10.2936062,9.88295196 10.270766,8.12415784 C10.2454896,6.19759902 8.8187405,5.08342255 8.8187405,5.08342255 L15.0093392,5.07035392 L15.0093392,0.191804902 L0.122727827,0.191804902 Z" id="Fill-95" fill="#FFDE62"></path>
                </g>
            </g>
        </g>
    </g>
</svg>